<?xml version="1.0" encoding="utf-8"?>
<!-- Generator: Adobe Illustrator 22.1.0, SVG Export Plug-In . SVG Version: 6.00 Build 0)  -->
<svg version="1.1" xmlns="http://www.w3.org/2000/svg" xmlns:xlink="http://www.w3.org/1999/xlink" x="0px" y="0px"
	 viewBox="0 0 224 90" style="enable-background:new 0 0 224 90;" xml:space="preserve">
<style type="text/css">
	.st0{display:none;}
	.st1{display:inline;fill:#ED1164;}
	.st2{display:inline;}
	.st3{display:inline;fill:none;stroke:#000000;stroke-width:0.216;stroke-miterlimit:22.9256;}
	.st4{display:inline;fill:#BCBEC0;}
	.st5{fill:#FFCA05;}
	.st6{fill:#9A94C8;}
	.st7{fill:#8DD7F7;}
	.st8{fill:#EE5BA0;}
	.st9{fill:#0094D9;}
	.st10{fill:#A5CD39;}
	.st11{fill:#EC1164;}
	.st12{fill-rule:evenodd;clip-rule:evenodd;fill:#EC1164;}
	.st13{fill-rule:evenodd;clip-rule:evenodd;fill:#000002;}
	.st14{fill-rule:evenodd;clip-rule:evenodd;fill:#FFFFFF;}
	.st15{fill:none;stroke:#231F20;stroke-width:0.216;stroke-miterlimit:22.9256;}
	.st16{fill-rule:evenodd;clip-rule:evenodd;fill:#BBBDBF;}
	.st17{fill-rule:evenodd;clip-rule:evenodd;fill:#FFCA05;}
	.st18{fill-rule:evenodd;clip-rule:evenodd;fill:#9A94C8;}
	.st19{fill-rule:evenodd;clip-rule:evenodd;fill:#8DD7F7;}
	.st20{fill-rule:evenodd;clip-rule:evenodd;fill:#EE5BA0;}
	.st21{fill-rule:evenodd;clip-rule:evenodd;fill:#0094D9;}
	.st22{fill-rule:evenodd;clip-rule:evenodd;fill:#A5CD39;}
</style>
<g id="Layer_1" class="st0">
	<rect class="st1" width="47.9" height="47.7"/>
	<path class="st2" d="M71.8,6.9c-9.4,0-17.1,7.6-17.1,17s7.7,17,17.1,17s17.1-7.6,17.1-17C88.8,14.6,81.2,6.9,71.8,6.9 M79.1,16.6
		l2.3-2.3c-2.5-2.5-5.9-4-9.5-4c-7.5,0-13.7,6.2-13.7,13.7s6.2,13.6,13.7,13.6c3.8,0,7.3-1.5,9.7-4.1l-2.3-2.4
		c-1.9,2-4.5,3.2-7.4,3.2c-5.7,0-10.3-4.7-10.3-10.3s4.7-10.3,10.3-10.3C74.6,13.7,77.2,14.9,79.1,16.6z M102.7,37.4L102.7,37.4
		c11.3,0,20.5-9.2,20.5-20.4v-6.8h-3.4V17c0,9.4-7.7,17-17.1,17.1l0,0V10.2h-3.4v27.3L102.7,37.4L102.7,37.4z M43.7,3.5v3.4l0,0
		c-6,0-11,4.5-11.8,10.2h-3.4C29.4,9.4,35.8,3.5,43.7,3.5L43.7,3.5z M44.5,13.8v-3.5c-0.3,0-0.6-0.1-0.8-0.1c-4.7,0-8.6,3.8-8.6,8.5
		c0,1.8,0.5,3.5,1.5,4.8c0.7,1.1,1.2,2.4,1.2,3.7c0,3.7-3.1,6.8-6.8,6.8s-6.8-3.1-6.8-6.8l0,0h-3.5l0,0c0,5.6,4.6,10.3,10.3,10.3
		s10.3-4.6,10.3-10.3c0-2-0.6-3.8-1.6-5.4l0,0c0,0,0,0-0.1,0c-0.1-0.2-0.2-0.3-0.3-0.5c-0.4-0.8-0.7-1.6-0.7-2.6
		c0-2.8,2.3-5.1,5.1-5.1C44,13.7,44.3,13.7,44.5,13.8z M47.9,0h47.9v47.7H47.9V0z M118,51.9l-1.6,9.9h3.6l0.2-1.2H118l0.5-3.4h2
		l0.2-1.1h-2l0.5-3.1h2.2l0.2-1.1C121.6,51.9,118,51.9,118,51.9z M115.1,51.9l-1.2,7.1c-0.1,0.4-0.1,0.7-0.2,1
		c-0.1,0.2-0.2,0.4-0.4,0.5c-0.1,0.1-0.3,0.1-0.6,0.2c-0.3,0-0.6-0.1-0.9-0.3l-0.2,1.3c0.3,0.2,0.6,0.3,1.1,0.3
		c0.6,0,1.1-0.2,1.5-0.5c0.4-0.4,0.7-1.1,0.8-2.1l1.2-7.5H115.1z M106.2,61.8h1.3c0.1-0.9,0.3-1.8,0.4-2.6c0.1-0.9,0.2-1.7,0.3-2.5
		c0.1-0.9,0.2-1.7,0.2-2.5l0,0l1.1,7.7h1.2l1.6-9.9H111c-0.1,0.9-0.3,1.7-0.4,2.3c-0.1,0.7-0.2,1.2-0.2,1.7s-0.1,1-0.1,1.5
		s-0.1,1.2-0.1,2l0,0L109,52h-1.3L106.2,61.8z M103.2,51.9l-1.6,9.9h3.6l0.2-1.2h-2.2l0.5-3.4h2l0.2-1.1h-2l0.5-3.1h2.2l0.2-1.1
		C106.8,51.9,103.2,51.9,103.2,51.9z M98.8,51.9l-1.6,9.9h3.6l0.2-1.2h-2.2l1.4-8.8L98.8,51.9L98.8,51.9z M94.2,51.9l-1.6,9.9h3.6
		l0.2-1.2h-2.2l0.5-3.4h2l0.2-1.1h-2l0.5-3.1h2.2l0.2-1.1C97.8,51.9,94.2,51.9,94.2,51.9z M88.7,61.8h1.1l3.5-9.9h-1.2
		c-0.1,0.3-0.3,0.8-0.5,1.6c-0.3,0.8-0.5,1.5-0.7,2.2s-0.4,1.3-0.6,1.9c-0.2,0.6-0.3,1.2-0.5,1.7l0,0l0.1-7.5h-1.3L88.7,61.8z
		 M81.6,56.3l0.5-3.3c0.4,0,0.7,0.1,0.8,0.2c0.2,0.1,0.3,0.4,0.3,0.8c0,0.6-0.1,1.2-0.4,1.6C82.6,56,82.2,56.3,81.6,56.3z
		 M79.3,61.8h1.3l0.8-4.9l0,0l1,4.9h1.4l-1-4.8c0.4-0.1,0.8-0.3,1.1-0.6c0.3-0.4,0.5-0.8,0.6-1.3s0.2-1,0.2-1.4
		c0-0.6-0.1-1.1-0.4-1.3C84,52.1,83.5,52,82.9,52h-1.8L79.3,61.8z M76.3,51.9l-1.6,9.9h3.6l0.2-1.2h-2.2l0.5-3.4h2l0.2-1.1h-2
		l0.5-3.1h2.2l0.2-1.1C79.9,51.9,76.3,51.9,76.3,51.9z M71.2,51.9L71,53h1.6l-1.4,8.8h1.3l1.4-8.8h1.5l0.2-1.1H71.2z M64.3,61.8h1.3
		c0.1-0.9,0.3-1.8,0.4-2.6c0.1-0.9,0.2-1.7,0.3-2.5c0.1-0.9,0.2-1.7,0.2-2.5l0,0l1.1,7.7h1.2l1.6-9.9h-1.3c-0.1,0.9-0.3,1.7-0.4,2.3
		c-0.1,0.7-0.2,1.2-0.2,1.7s-0.1,1-0.1,1.5s-0.1,1.2-0.1,2l0,0L67.1,52h-1.3L64.3,61.8z M61.2,51.9l-1.6,9.9h3.6l0.2-1.2h-2.2
		l0.5-3.4h2l0.2-1.1h-2l0.5-3.1h2.2l0.2-1.1C64.8,51.9,61.2,51.9,61.2,51.9z M60.2,52c-0.4-0.2-0.8-0.3-1.2-0.3s-0.8,0.1-1.1,0.3
		c-0.4,0.2-0.7,0.4-0.9,0.6c-0.3,0.3-0.6,0.8-0.9,1.5c-0.3,0.7-0.5,1.4-0.7,2.3c-0.2,0.8-0.2,1.6-0.3,2.4c0,1,0.2,1.7,0.4,2.1
		c0.2,0.3,0.4,0.6,0.8,0.7c0.4,0.2,0.8,0.3,1.2,0.3c0.5,0,0.8-0.1,1.1-0.3l0.2-1.2c-0.2,0.1-0.5,0.2-0.8,0.2c-0.6,0-1-0.2-1.1-0.6
		c-0.2-0.4-0.3-0.9-0.3-1.6c0-0.6,0.1-1.1,0.2-1.8c0.1-0.6,0.3-1.1,0.4-1.6c0.1-0.5,0.3-0.8,0.4-1c0.2-0.3,0.4-0.6,0.8-0.8
		c0.3-0.2,0.6-0.3,0.9-0.3c0.3,0,0.6,0.1,0.8,0.3L60.2,52z M52,51.9h-1.3l-1.6,9.9h1.3L52,51.9z M45.7,56.7l0.7-4.8h-1.3l-1.6,9.9
		h1.3L45.7,56.7z M45.7,56.7l1.1,5.1h1.5L47,56.7l2.7-4.8h-1.4L45.7,56.7z M38.9,60.1l-0.2,1.3c0.3,0.3,0.8,0.5,1.4,0.5
		c0.6,0,1-0.1,1.5-0.4c0.4-0.3,0.8-0.7,1-1.2s0.3-1,0.3-1.6c0-0.4-0.1-0.8-0.3-1.2s-0.4-0.8-0.8-1.3c-0.4-0.5-0.6-0.8-0.8-1.1
		c-0.1-0.3-0.2-0.5-0.2-0.8c0.1-0.4,0.3-0.8,0.5-1c0.3-0.3,0.6-0.4,0.9-0.4c0.4,0,0.8,0.1,1.1,0.4l0.2-1.4c-0.4-0.2-0.9-0.3-1.3-0.3
		c-0.5,0-0.9,0.1-1.4,0.4c-0.4,0.3-0.7,0.6-1,1.1s-0.4,1-0.4,1.6c0,0.5,0.1,0.8,0.3,1.2c0.2,0.3,0.4,0.7,0.8,1.1
		c0.3,0.4,0.6,0.7,0.8,1s0.3,0.6,0.3,1s-0.2,0.8-0.4,1.1c-0.3,0.3-0.6,0.4-1,0.5C39.7,60.6,39.3,60.4,38.9,60.1z M36.1,51.9
		l-1.6,9.9h3.6l0.2-1.2H36l1.4-8.8L36.1,51.9L36.1,51.9z M29.9,58.9c0-0.6,0.1-1.2,0.2-1.8s0.2-1.2,0.3-1.9c0.1-0.6,0.3-1.2,0.6-1.6
		c0.3-0.4,0.5-0.7,0.9-0.7c0.3,0,0.6,0.1,0.7,0.3s0.2,0.6,0.2,1.1c0,0.1,0,0.2,0,0.4s0,0.3,0,0.4c-0.1,0.7-0.1,1.4-0.3,2.3
		c-0.1,0.9-0.4,1.6-0.6,2.3c-0.3,0.7-0.6,1-1,1c-0.6,0-0.9-0.4-0.9-1.3C29.9,59.2,29.9,59.1,29.9,58.9z M28.5,59c0,0.1,0,0.2,0,0.4
		c0,0.5,0.1,0.9,0.2,1.3c0.1,0.4,0.3,0.7,0.6,0.9c0.3,0.3,0.7,0.4,1.1,0.4c0.6,0,1.2-0.2,1.6-0.6c0.4-0.4,0.8-0.9,1.1-1.6
		c0.3-0.7,0.5-1.4,0.6-2.3c0.1-0.9,0.3-1.8,0.3-2.9v-0.1c0-0.1,0-0.1,0-0.2c0-0.7-0.2-1.3-0.5-1.8s-0.8-0.7-1.5-0.7
		c-0.3,0-0.5,0-0.7,0.1c-0.7,0.2-1.3,0.6-1.7,1.4c-0.4,0.8-0.7,1.7-0.9,2.6C28.7,56.8,28.6,57.8,28.5,59z M28.6,49.6L28,49.1
		l-1.1,1.1L26,49.1l-0.7,0.5l1.3,1.8L28.6,49.6z M23.6,60.1l-0.2,1.3c0.3,0.3,0.8,0.5,1.4,0.5s1-0.1,1.5-0.4c0.4-0.3,0.8-0.7,1-1.2
		s0.3-1,0.3-1.6c0-0.4-0.1-0.8-0.3-1.2c-0.2-0.4-0.4-0.8-0.8-1.3s-0.6-0.8-0.8-1.1c-0.1-0.3-0.2-0.5-0.2-0.8c0.1-0.4,0.3-0.8,0.5-1
		c0.3-0.3,0.6-0.4,0.9-0.4c0.4,0,0.8,0.1,1.1,0.4l0.2-1.4c-0.4-0.2-0.9-0.3-1.3-0.3c-0.5,0-0.9,0.1-1.4,0.4c-0.4,0.3-0.7,0.6-1,1.1
		s-0.4,1-0.4,1.6c0,0.5,0.1,0.8,0.3,1.2c0.2,0.3,0.4,0.7,0.8,1.1c0.3,0.4,0.6,0.7,0.8,1c0.2,0.3,0.3,0.6,0.3,1s-0.2,0.8-0.4,1.1
		c-0.3,0.3-0.6,0.4-1,0.5C24.4,60.6,23.9,60.4,23.6,60.1z"/>
	<path class="st2" d="M79.1,16.6l2.3-2.3c-2.5-2.5-5.9-4-9.5-4c-7.5,0-13.7,6.2-13.7,13.7s6.2,13.6,13.7,13.6c3.8,0,7.3-1.5,9.7-4.1
		l-2.3-2.4c-1.9,2-4.5,3.2-7.4,3.2c-5.7,0-10.3-4.7-10.3-10.3s4.7-10.3,10.3-10.3C74.6,13.7,77.2,14.9,79.1,16.6z"/>
	<path class="st3" d="M71.8,6.9c-9.4,0-17.1,7.6-17.1,17s7.7,17,17.1,17s17.1-7.6,17.1-17C88.8,14.6,81.2,6.9,71.8,6.9z M79.1,16.6
		l2.3-2.3c-2.5-2.5-5.9-4-9.5-4c-7.5,0-13.7,6.2-13.7,13.7s6.2,13.6,13.7,13.6c3.8,0,7.3-1.5,9.7-4.1l-2.3-2.4
		c-1.9,2-4.5,3.2-7.4,3.2c-5.7,0-10.3-4.7-10.3-10.3s4.7-10.3,10.3-10.3C74.6,13.7,77.2,14.9,79.1,16.6z"/>
	<path class="st4" d="M202.1,58.1l-0.6,3.6c-0.2,1.2,0.5,1.9,1.5,1.9c1.2,0,2-0.7,2.2-1.9l0.6-3.6c0.2-1.1-0.5-1.8-1.5-1.8
		C203.1,56.4,202.2,57.1,202.1,58.1 M202.8,61.9l0.6-3.8c0.1-0.3,0.3-0.5,0.6-0.5s0.5,0.2,0.5,0.5l-0.6,3.8
		c-0.1,0.4-0.3,0.6-0.7,0.6C202.9,62.5,202.7,62.2,202.8,61.9z M208.4,62.9l-0.1,0.5h1.3l1.6-9.4h-1.3l-0.5,3
		c-0.3-0.4-0.7-0.7-1-0.7c-0.8,0-1.4,0.6-1.5,1.7l-0.6,3.9c-0.2,1,0.2,1.5,0.9,1.5C207.6,63.6,208,63.4,208.4,62.9z M208.5,62.2
		c-0.2,0.2-0.4,0.3-0.7,0.3s-0.4-0.2-0.4-0.6l0.6-3.6c0.1-0.5,0.3-0.7,0.6-0.7c0.2,0,0.3,0.1,0.5,0.3L208.5,62.2z"/>
	<path class="st4" d="M216.8,70.8c-0.9,0-1-0.6-0.7-2.1c0.2-1.4,0.5-2.1,1.4-2.1c0.8,0,0.9,0.6,0.7,2.2
		C217.9,70.2,217.5,70.8,216.8,70.8 M215.6,78c-1,0-1.1-0.9-0.8-2.6c0.2-1.5,0.6-2.2,1.6-2.2c0.9,0,0.9,0.8,0.7,2.4
		C216.8,77.2,216.5,78,215.6,78z M214.8,71.9c-1.1,0.6-1.8,1.8-2.1,3.7c-0.5,2.9,0.4,4.4,2.5,4.4s3.5-1.5,4-4.3
		c0.3-2.1,0-3.4-0.8-3.8c1-0.7,1.5-1.7,1.8-3.4c0.4-2.5-0.4-3.8-2.4-3.8s-3.3,1.3-3.7,3.8C213.8,70.3,214,71.3,214.8,71.9z
		 M204.9,75.6l-0.1,0.4c-0.4,2.6,0.4,4,2.4,4s3.5-1.3,3.8-3.6l0.6-3.7c0.3-2.1-0.4-3.1-1.7-3.1c-0.7,0-1.4,0.3-2.2,1l0.8-3.4h3.8
		l0.3-2.1h-5.5l-1.5,7.7l1.8,0.1c0.4-0.8,0.9-1.2,1.4-1.2c0.7,0,0.9,0.4,0.8,1.2l-0.6,3.7c-0.2,1-0.6,1.5-1.3,1.5
		c-0.8,0-1.1-0.6-0.9-1.7l0.1-0.7h-2V75.6z M201.7,71.3c-0.4,0.6-0.8,0.9-1.4,0.9c-0.8,0-1-0.6-0.8-1.7l0.3-2.1
		c0.2-1,0.7-1.5,1.4-1.5s1.1,0.5,1,1.3L201.7,71.3z M196.3,76.3c-0.4,2.3,0.7,3.8,2.7,3.8c2.2,0,3.7-1.4,4.1-3.7l1.3-7.5
		c0.4-2.7-0.5-4.1-2.7-4.1c-2.3,0-3.8,1.6-4.3,4.7c-0.5,3,0.2,4.5,2.1,4.5c0.7,0,1.3-0.3,1.9-0.8l-0.6,3.6c-0.1,0.7-0.7,1.2-1.4,1.2
		s-1.1-0.5-1-1.2l0.2-1h-2.2L196.3,76.3z M191.4,68.4h1.8l-1.9,11.4h2.2l2.5-14.6h-1.5c-0.7,0.8-1.6,1.4-2.8,1.8L191.4,68.4z
		 M205.2,53.9c9.6,0,17.4,7.8,17.4,17.3c0,9.6-7.8,17.3-17.4,17.3c-9.6,0-17.4-7.8-17.4-17.3C187.8,61.6,195.6,53.9,205.2,53.9z
		 M205.2,52.4c10.4,0,18.8,8.4,18.8,18.8S215.6,90,205.2,90c-10.4,0-18.8-8.4-18.8-18.8C186.3,60.8,194.7,52.4,205.2,52.4z"/>
	<path class="st4" d="M125,80.3h7.3l0.4-2.8h-4.3l5.9-10.3l0.4-2.6h-7l-0.4,2.7h4.1l-6.1,10.4L125,80.3z M134.4,80.3h2.8l1.9-11.9
		c0.7-0.8,1.5-1.2,1.8-1.2c0.6,0,0.7,0.4,0.5,1.2l-1.8,11.9h2.7l2-13.2c0.3-1.9-0.2-2.8-1.5-2.8c-1,0-2.2,0.6-3.4,1.9l0.3-1.7h-2.8
		L134.4,80.3z M149.9,78.5c-0.1,0.7-0.1,1.3,0,1.8h2.7c0-0.7,0.1-2.2,0.4-4.5l1-6.7c0.5-3.3-0.4-4.9-2.9-4.9c-2.3,0-4.4,1.8-4.8,4.5
		c0,0.2,0,0.3,0,0.4h2.8l0.1-0.9c0.1-0.8,0.7-1.3,1.4-1.3c0.6,0,0.9,0.5,0.7,1.4L151,70c-4,2.1-6,3.8-6.5,7
		c-0.4,2.3,0.4,3.5,1.9,3.5C147.5,80.5,148.8,79.9,149.9,78.5z M150.1,76.4c-0.6,0.9-1.4,1.4-1.9,1.4s-0.8-0.5-0.6-1.5
		c0.3-1.8,1.2-2.7,3.2-4L150.1,76.4z M154.8,80.3h2.8l1.9-11.9c0.7-0.8,1.5-1.2,1.8-1.2c0.6,0,0.7,0.4,0.5,1.2L160,80.3h2.7l2-13.2
		c0.3-1.9-0.2-2.8-1.5-2.8c-1,0-2.2,0.6-3.4,1.9l0.3-1.7h-2.8L154.8,80.3z M169.7,69.4H167l-1.8,12.1c-0.1,0.5-0.6,1.1-1.4,1.1
		c-0.2,0-0.5,0-0.8-0.1l-0.4,2.5c0.5,0.2,1,0.2,1.5,0.2c2.1,0,3.4-1.2,3.8-3.7L169.7,69.4z M167.3,67.6h2.7l0.5-2.9h-2.7L167.3,67.6
		z M175.9,78.5c-0.1,0.7-0.1,1.3,0,1.8h2.7c0-0.7,0.1-2.2,0.4-4.5l1-6.7c0.5-3.3-0.4-4.9-2.9-4.9c-2.3,0-4.4,1.8-4.8,4.5
		c0,0.2,0,0.3,0,0.4h2.8l0.1-0.9c0.1-0.8,0.7-1.3,1.5-1.3c0.6,0,0.9,0.5,0.7,1.4l-0.3,1.7c-4,2.1-6,3.8-6.5,7
		c-0.4,2.3,0.4,3.5,1.9,3.5C173.5,80.5,174.8,79.9,175.9,78.5z M176.1,76.4c-0.6,0.9-1.4,1.4-1.9,1.4s-0.8-0.5-0.6-1.5
		c0.3-1.8,1.2-2.7,3.2-4L176.1,76.4z"/>
	<g class="st2">
		<path class="st5" d="M94.3,80.4H97l1.6-10.9h-2.8L94.3,80.4z M96.2,67.6H99l0.5-2.9h-2.8L96.2,67.6z"/>
		<path class="st6" d="M114.8,78.6c-0.1,0.6-0.1,1.2,0,1.8h2.7c0-1.5,0.2-3,0.5-4.5l1-6.7c0.5-3.3-0.4-4.9-2.9-4.9
			c-2.5,0.1-4.5,2-4.8,4.5c0,0.2,0,0.3,0,0.4h2.8l0.1-0.9c0.1-0.8,0.7-1.3,1.4-1.3c0.6,0,0.8,0.5,0.7,1.5l-0.3,1.7
			c-4,2.1-6,3.8-6.5,7c-0.3,2.3,0.4,3.5,1.9,3.5C112.8,80.5,114.1,79.7,114.8,78.6 M115.1,76.5c-0.4,0.8-1.1,1.3-2,1.5
			c-0.5,0-0.8-0.5-0.6-1.6c0.3-1.7,1.2-2.7,3.2-4L115.1,76.5z"/>
		<path class="st7" d="M100.1,76c-0.5,3.1,0.9,4.9,3.2,4.9c2.7,0,4.3-1.6,4.8-4.9l0.2-1.3h-2.8l-0.2,1.2c-0.2,1.5-0.4,2.2-1.6,2.2
			c-1,0-1-0.7-0.8-2.2l1.1-7c0.2-1.2,0.6-1.8,1.5-1.8s1.1,0.6,0.9,1.8l-0.2,1.3h2.8l0.2-1.2c0.5-3-0.9-4.6-3.2-4.6s-4.4,1.7-4.9,4.8
			L100.1,76z"/>
		<path class="st8" d="M86.9,80.4h2.8l1.6-10.3c0.1-1.4,1.3-2.5,2.7-2.5c0.3,0,0.6,0.1,0.9,0.2l0.5-3.3H95c-1.2,0-2.3,0.8-3.3,2.3
			l0.3-2.1h-2.8L86.9,80.4z"/>
		<polygon class="st9" points="79.5,64.7 80.2,80.4 82.7,80.4 88,64.7 85.3,64.7 82.4,74.4 82.3,74.4 82.1,64.7 		"/>
		<path class="st10" d="M73.4,78.6c-0.1,0.6-0.1,1.2,0,1.8h2.7c0-1.5,0.2-3,0.4-4.5l1-6.7c0.5-3.3-0.4-4.9-2.9-4.9
			c-2.5,0.1-4.6,2-4.8,4.5c0,0.2,0,0.3,0,0.4h2.8l0.1-0.9c0.1-0.8,0.7-1.3,1.4-1.3c0.6,0,0.9,0.5,0.7,1.5l-0.3,1.7
			c-4,2.1-6,3.8-6.5,7c-0.3,2.3,0.4,3.5,1.8,3.5C71.4,80.5,72.7,79.7,73.4,78.6 M73.7,76.5c-0.4,0.8-1.1,1.3-1.9,1.5
			c-0.5,0-0.8-0.5-0.6-1.6c0.3-1.7,1.1-2.7,3.2-4L73.7,76.5z"/>
		<path class="st11" d="M52.9,80.4h2.8l1.8-11.9c0.5-0.6,1.1-1,1.9-1.2c0.6,0,0.7,0.4,0.6,1.2l-1.8,11.9h2.5l1.9-11.9
			c0.4-0.6,1.1-1,1.8-1.2c0.6,0,0.7,0.4,0.5,1.2L63,80.4h2.8l2.1-13.3c0.3-1.8-0.3-2.7-1.6-2.7c-1.3,0.1-2.5,0.8-3.3,1.8
			c-0.1-1.2-0.6-1.8-1.7-1.8c-1.3,0.1-2.5,0.8-3.4,1.8l0.3-1.6h-2.8L52.9,80.4z"/>
	</g>
</g>
<g id="Layer_2">
	<g>
		<rect x="0" y="0" class="st12" width="55.3" height="55.3"/>
		<path class="st13" d="M82.9,8.1c-10.8,0-19.7,8.8-19.7,19.7s8.8,19.7,19.7,19.7s19.7-8.8,19.7-19.7S93.8,8.1,82.9,8.1 M91.4,19.3
			l2.7-2.7c-2.8-2.8-6.8-4.6-11-4.6c-8.7,0-15.8,7.2-15.8,15.8c0,8.7,7.2,15.8,15.8,15.8c4.4,0,8.4-1.8,11.2-4.8l-2.7-2.8
			c-2.2,2.3-5.2,3.7-8.5,3.7c-6.5,0-11.9-5.4-11.9-11.9c0-6.5,5.4-11.9,11.9-11.9C86.2,15.9,89.2,17.2,91.4,19.3z M118.6,43.4
			L118.6,43.4c13.1,0,23.7-10.6,23.7-23.7v-7.9h-3.9v7.9c0,10.9-8.8,19.7-19.7,19.8l0,0V11.9h-3.9v31.7h3.9V43.4z M50.5,4.1V8l0,0
			c-6.9,0-12.7,5.2-13.6,11.8H33C34,10.9,41.4,4,50.5,4.1L50.5,4.1z M51.5,16v-4c-0.3,0-0.7-0.1-1-0.1c-5.5,0-9.9,4.4-9.9,9.9
			c0,2.1,0.6,4,1.7,5.6c0.8,1.3,1.3,2.7,1.3,4.3c0,4.3-3.5,7.8-7.8,7.8c-4.3,0-7.8-3.5-7.8-7.8c0,0,0,0,0,0h-4c0,0,0,0,0,0
			c0,6.5,5.3,11.9,11.9,11.9c6.5,0,11.9-5.3,11.9-11.9c0-2.3-0.7-4.4-1.9-6.2l0,0c0,0,0,0-0.1,0c-0.1-0.2-0.2-0.4-0.4-0.5
			c-0.5-0.9-0.8-1.9-0.8-3c0-3.3,2.6-5.9,5.9-5.9C50.8,15.9,51.2,15.9,51.5,16z M55.3,0h55.3v55.3H55.3V0z M136.3,60.1l-1.8,11.5
			h4.1l0.2-1.3h-2.6l0.6-3.9h2.3l0.2-1.3h-2.3l0.6-3.6h2.6l0.2-1.3H136.3z M132.9,60.1l-1.3,8.2c-0.1,0.5-0.1,0.8-0.2,1.1
			c-0.1,0.3-0.2,0.5-0.4,0.6c-0.2,0.1-0.4,0.2-0.7,0.2c-0.4,0-0.7-0.2-1-0.4l-0.2,1.5c0.3,0.2,0.7,0.3,1.3,0.3
			c0.7,0,1.3-0.2,1.7-0.6c0.5-0.5,0.8-1.3,1-2.4l1.4-8.6H132.9z M122.7,71.6h1.5c0.2-1,0.3-2,0.5-3c0.1-1,0.3-2,0.4-2.9
			c0.1-1,0.2-1.9,0.2-2.9l0,0l1.3,8.9h1.4l1.8-11.5h-1.5c-0.2,1-0.3,1.9-0.4,2.7c-0.1,0.8-0.2,1.4-0.2,2c0,0.6-0.1,1.1-0.2,1.7
			c0,0.6-0.1,1.4-0.2,2.3l0,0l-1.3-8.7h-1.4L122.7,71.6z M119.2,60.1l-1.8,11.5h4.1l0.2-1.3h-2.6l0.6-3.9h2.3l0.2-1.3h-2.3l0.6-3.6
			h2.6l0.2-1.3H119.2z M114.1,60.1l-1.8,11.5h4.1l0.2-1.3h-2.6l1.6-10.2H114.1z M108.8,60.1L107,71.6h4.1l0.2-1.3h-2.6l0.6-3.9h2.3
			l0.2-1.3h-2.3l0.6-3.6h2.6l0.2-1.3H108.8z M102.5,71.6h1.2l4.1-11.5h-1.4c-0.1,0.3-0.3,1-0.6,1.9c-0.3,0.9-0.6,1.8-0.9,2.6
			c-0.3,0.8-0.5,1.5-0.7,2.2c-0.2,0.7-0.4,1.4-0.6,2h0l0.1-8.6h-1.5L102.5,71.6z M94.2,65.2l0.6-3.8c0.4,0,0.8,0.1,1,0.2
			c0.2,0.1,0.3,0.4,0.3,0.9c0,0.7-0.1,1.4-0.4,1.9C95.4,64.9,94.9,65.2,94.2,65.2z M91.7,71.6h1.5l0.9-5.6h0l1.2,5.6h1.6L95.6,66
			c0.5-0.1,0.9-0.3,1.2-0.7c0.3-0.4,0.5-0.9,0.7-1.5c0.1-0.6,0.2-1.1,0.2-1.6c0-0.7-0.2-1.2-0.5-1.6c-0.4-0.3-0.9-0.5-1.6-0.5h-2.1
			L91.7,71.6z M88.2,60.1l-1.8,11.5h4.1l0.2-1.3h-2.6l0.6-3.9H91l0.2-1.3h-2.3l0.6-3.6h2.6l0.2-1.3H88.2z M82.3,60.1l-0.2,1.3h1.8
			l-1.6,10.2h1.6l1.6-10.2h1.7l0.2-1.3H82.3z M74.2,71.6h1.5c0.2-1,0.3-2,0.5-3c0.1-1,0.3-2,0.4-2.9c0.1-1,0.2-1.9,0.2-2.9l0,0
			l1.3,8.9h1.4l1.8-11.5h-1.5c-0.2,1-0.3,1.9-0.4,2.7c-0.1,0.8-0.2,1.4-0.2,2c0,0.6-0.1,1.1-0.2,1.7c0,0.6-0.1,1.4-0.2,2.3l0,0
			l-1.3-8.7h-1.4L74.2,71.6z M70.7,60.1l-1.8,11.5H73l0.2-1.3h-2.6l0.6-3.9h2.3l0.2-1.3h-2.3l0.6-3.6h2.6l0.2-1.3H70.7z M69.6,60.3
			c-0.4-0.2-0.9-0.3-1.4-0.3c-0.4,0-0.9,0.1-1.3,0.3c-0.4,0.2-0.8,0.4-1.1,0.7c-0.4,0.4-0.7,1-1.1,1.8c-0.3,0.8-0.6,1.7-0.8,2.6
			c-0.2,1-0.3,1.9-0.3,2.7c0,1.1,0.2,2,0.4,2.5c0.2,0.4,0.5,0.6,0.9,0.9c0.4,0.2,0.9,0.3,1.4,0.3c0.5,0,1-0.1,1.3-0.3L68,70
			c-0.3,0.2-0.6,0.2-0.9,0.3c-0.7,0-1.1-0.3-1.3-0.7c-0.2-0.5-0.3-1.1-0.4-1.9c0-0.7,0.1-1.3,0.2-2c0.1-0.7,0.3-1.3,0.5-1.9
			c0.2-0.6,0.3-0.9,0.5-1.2c0.2-0.4,0.5-0.7,0.9-0.9c0.4-0.2,0.7-0.3,1-0.3c0.4,0,0.7,0.1,1,0.3L69.6,60.3z M60.1,60.1h-1.5
			l-1.8,11.5h1.5L60.1,60.1z M52.8,65.7l0.9-5.6h-1.5l-1.8,11.5h1.5L52.8,65.7z M52.8,65.7l1.2,5.9h1.8l-1.5-5.9l3.2-5.6h-1.6
			L52.8,65.7z M45,69.6l-0.2,1.6c0.4,0.4,0.9,0.5,1.6,0.5c0.6,0,1.2-0.2,1.7-0.5c0.5-0.4,0.9-0.8,1.1-1.4c0.3-0.6,0.4-1.2,0.4-1.8
			c0-0.5-0.1-1-0.3-1.4c-0.2-0.4-0.5-0.9-0.9-1.4c-0.4-0.5-0.7-0.9-0.9-1.2c-0.2-0.3-0.3-0.6-0.3-0.9c0.1-0.5,0.3-0.9,0.6-1.2
			c0.3-0.3,0.7-0.4,1-0.4c0.5,0,0.9,0.2,1.2,0.5l0.3-1.6c-0.5-0.3-1-0.4-1.5-0.4c-0.6,0-1.1,0.2-1.6,0.4c-0.5,0.3-0.9,0.7-1.1,1.3
			c-0.3,0.5-0.4,1.2-0.4,1.9c0,0.5,0.1,1,0.3,1.4c0.2,0.4,0.5,0.8,0.9,1.2c0.4,0.5,0.7,0.9,0.9,1.2c0.2,0.3,0.3,0.7,0.3,1.2
			c0,0.5-0.2,0.9-0.5,1.3c-0.3,0.4-0.7,0.5-1.1,0.5C45.9,70.2,45.4,70,45,69.6z M41.7,60.1l-1.8,11.5H44l0.2-1.3h-2.6l1.6-10.2H41.7
			z M34.6,68.3c0-0.7,0.1-1.4,0.2-2.1c0.1-0.7,0.2-1.4,0.4-2.2c0.2-0.7,0.4-1.4,0.7-1.9c0.3-0.5,0.6-0.8,1-0.8
			c0.4,0,0.6,0.1,0.8,0.4c0.1,0.3,0.2,0.7,0.2,1.3c0,0.1,0,0.2,0,0.4c0,0.2,0,0.3,0,0.4c-0.1,0.8-0.2,1.7-0.3,2.7
			c-0.2,1-0.4,1.9-0.7,2.6c-0.3,0.8-0.7,1.1-1.2,1.2c-0.7,0-1-0.5-1.1-1.5C34.6,68.6,34.6,68.5,34.6,68.3z M32.9,68.3
			c0,0.1,0,0.2,0,0.4c0,0.5,0.1,1,0.2,1.5c0.2,0.5,0.4,0.8,0.7,1.1c0.4,0.3,0.8,0.4,1.3,0.4c0.7,0,1.4-0.2,1.9-0.7
			c0.5-0.4,0.9-1.1,1.3-1.8c0.3-0.8,0.6-1.7,0.7-2.7c0.2-1,0.3-2.1,0.4-3.3c0,0,0-0.1,0-0.2c0-0.1,0-0.1,0-0.2
			c0-0.8-0.2-1.5-0.5-2.1C38.6,60.2,38,60,37.2,60c-0.3,0-0.6,0-0.8,0.1c-0.8,0.2-1.5,0.7-2,1.7c-0.5,0.9-0.8,1.9-1,3
			C33.2,65.7,33.1,67,32.9,68.3z M33.1,57.5l-0.7-0.6l-1.3,1.3l-1-1.3l-0.8,0.6l1.5,2.1L33.1,57.5z M27.3,69.6L27,71.2
			c0.4,0.4,0.9,0.5,1.6,0.5c0.6,0,1.2-0.2,1.7-0.5c0.5-0.4,0.9-0.8,1.1-1.4c0.3-0.6,0.4-1.2,0.4-1.8c0-0.5-0.1-1-0.3-1.4
			c-0.2-0.4-0.5-0.9-0.9-1.4c-0.4-0.5-0.7-0.9-0.9-1.2c-0.2-0.3-0.3-0.6-0.3-0.9c0.1-0.5,0.3-0.9,0.6-1.2c0.3-0.3,0.7-0.4,1-0.4
			c0.5,0,0.9,0.2,1.2,0.5l0.3-1.6c-0.5-0.3-1-0.4-1.5-0.4c-0.6,0-1.1,0.2-1.6,0.4c-0.5,0.3-0.9,0.7-1.1,1.3
			c-0.3,0.5-0.4,1.2-0.4,1.9c0,0.5,0.1,1,0.3,1.4c0.2,0.4,0.5,0.8,0.9,1.2c0.4,0.5,0.7,0.9,0.9,1.2c0.2,0.3,0.3,0.7,0.3,1.2
			c0,0.5-0.2,0.9-0.5,1.3c-0.3,0.4-0.7,0.5-1.1,0.5C28.2,70.2,27.7,70,27.3,69.6z"/>
		<path class="st14" d="M82.9,8.1c-10.8,0-19.7,8.8-19.7,19.7s8.8,19.7,19.7,19.7s19.7-8.8,19.7-19.7S93.8,8.1,82.9,8.1z M91.4,19.3
			l2.7-2.7c-2.8-2.8-6.8-4.6-11-4.6c-8.7,0-15.8,7.2-15.8,15.8c0,8.7,7.2,15.8,15.8,15.8c4.4,0,8.4-1.8,11.2-4.8l-2.7-2.8
			c-2.2,2.3-5.2,3.7-8.5,3.7c-6.5,0-11.9-5.4-11.9-11.9c0-6.5,5.4-11.9,11.9-11.9C86.2,15.9,89.2,17.2,91.4,19.3z"/>
		<path class="st15" d="M82.9,8.1c-10.8,0-19.7,8.8-19.7,19.7s8.8,19.7,19.7,19.7s19.7-8.8,19.7-19.7S93.8,8.1,82.9,8.1z M91.4,19.3
			l2.7-2.7c-2.8-2.8-6.8-4.6-11-4.6c-8.7,0-15.8,7.2-15.8,15.8c0,8.7,7.2,15.8,15.8,15.8c4.4,0,8.4-1.8,11.2-4.8l-2.7-2.8
			c-2.2,2.3-5.2,3.7-8.5,3.7c-6.5,0-11.9-5.4-11.9-11.9c0-6.5,5.4-11.9,11.9-11.9C86.2,15.9,89.2,17.2,91.4,19.3z"/>
		<path class="st16" d="M151.3,70.4l-0.4,2.2c-0.1,0.7,0.3,1.2,0.9,1.2c0.7,0,1.2-0.4,1.3-1.1l0.4-2.1c0.1-0.6-0.3-1.1-0.9-1.1
			C151.9,69.3,151.4,69.7,151.3,70.4 M151.7,72.6l0.4-2.3c0-0.2,0.2-0.3,0.4-0.3c0.2,0,0.3,0.1,0.3,0.3l-0.4,2.3
			c0,0.2-0.2,0.4-0.4,0.4C151.8,73,151.7,72.9,151.7,72.6z M155.1,73.3l-0.1,0.3h0.8l0.9-5.6H156l-0.3,1.8c-0.2-0.3-0.4-0.4-0.6-0.4
			c-0.5,0-0.8,0.4-0.9,1l-0.4,2.3c-0.1,0.6,0.1,0.9,0.5,0.9C154.6,73.7,154.8,73.5,155.1,73.3z M155.2,72.8
			c-0.1,0.1-0.3,0.2-0.4,0.2c-0.2,0-0.3-0.1-0.2-0.4l0.4-2.2c0-0.3,0.2-0.4,0.4-0.4c0.1,0,0.2,0.1,0.3,0.2L155.2,72.8z"/>
		<path class="st16" d="M160.1,78c-0.5,0-0.6-0.4-0.4-1.3c0.1-0.9,0.3-1.3,0.8-1.3c0.5,0,0.5,0.4,0.4,1.3
			C160.7,77.6,160.5,78,160.1,78 M159.4,82.3c-0.6,0-0.6-0.5-0.5-1.6c0.1-0.9,0.4-1.3,0.9-1.3c0.5,0,0.6,0.5,0.4,1.5
			C160.1,81.8,159.9,82.3,159.4,82.3z M158.9,78.7c-0.7,0.4-1.1,1.1-1.2,2.2c-0.3,1.8,0.2,2.7,1.5,2.7c1.2,0,2.1-0.9,2.4-2.6
			c0.2-1.2,0-2-0.5-2.3c0.6-0.4,0.9-1,1.1-2c0.3-1.5-0.3-2.3-1.4-2.3c-1.2,0-2,0.8-2.2,2.3C158.3,77.7,158.4,78.3,158.9,78.7z
			 M153,80.9l0,0.3c-0.3,1.6,0.2,2.4,1.4,2.4c1.2,0,2.1-0.8,2.3-2.1l0.4-2.2c0.2-1.2-0.2-1.9-1-1.9c-0.4,0-0.9,0.2-1.3,0.6l0.5-2.1
			h2.3l0.2-1.3h-3.3l-0.9,4.6l1.1,0c0.2-0.5,0.5-0.7,0.9-0.7c0.4,0,0.5,0.2,0.5,0.7l-0.4,2.2c-0.1,0.6-0.4,0.9-0.8,0.9
			c-0.5,0-0.6-0.3-0.5-1l0.1-0.4H153z M151.1,78.2c-0.2,0.3-0.5,0.5-0.8,0.5c-0.5,0-0.6-0.3-0.5-1l0.2-1.2c0.1-0.6,0.4-0.9,0.8-0.9
			c0.4,0,0.7,0.3,0.6,0.8L151.1,78.2z M147.8,81.3c-0.2,1.4,0.4,2.3,1.6,2.3c1.3,0,2.2-0.8,2.4-2.2l0.8-4.5c0.3-1.6-0.3-2.4-1.6-2.4
			c-1.4,0-2.2,0.9-2.6,2.8c-0.3,1.8,0.1,2.7,1.3,2.7c0.4,0,0.8-0.2,1.1-0.5l-0.4,2.2c-0.1,0.4-0.4,0.7-0.8,0.7
			c-0.4,0-0.6-0.3-0.6-0.7l0.1-0.6h-1.3L147.8,81.3z M144.9,76.5h1.1l-1.1,6.8h1.3l1.5-8.8h-0.9c-0.4,0.5-0.9,0.8-1.7,1.1
			L144.9,76.5z M153.1,67.8c5.7,0,10.4,4.6,10.4,10.4c0,5.7-4.6,10.4-10.4,10.4c-5.7,0-10.4-4.6-10.4-10.4
			C142.8,72.5,147.4,67.8,153.1,67.8z M153.1,67c6.2,0,11.3,5,11.3,11.3c0,6.2-5,11.3-11.3,11.3c-6.2,0-11.3-5-11.3-11.3
			C141.9,72,146.9,67,153.1,67z"/>
		<path class="st17" d="M86.9,83.7h1.7l1-6.5h-1.7L86.9,83.7z M88.1,76h1.7l0.3-1.8h-1.7L88.1,76z"/>
		<path class="st18" d="M99.2,82.6c0,0.4-0.1,0.8,0,1.1h1.6c0-0.4,0.1-1.3,0.3-2.7l0.6-4c0.3-2-0.2-3-1.7-3c-1.4,0-2.6,1.1-2.9,2.7
			c0,0.1,0,0.2,0,0.3h1.7l0.1-0.5c0.1-0.5,0.4-0.8,0.9-0.8c0.4,0,0.5,0.3,0.4,0.9l-0.2,1c-2.4,1.3-3.6,2.3-3.9,4.2
			c-0.2,1.4,0.2,2.1,1.1,2.1C97.8,83.8,98.5,83.4,99.2,82.6 M99.3,81.3c-0.3,0.6-0.8,0.9-1.2,0.9c-0.3,0-0.5-0.3-0.4-0.9
			c0.2-1,0.7-1.6,1.9-2.4L99.3,81.3z"/>
		<path class="st19" d="M90.4,81c-0.3,1.9,0.5,2.9,1.9,2.9c1.6,0,2.6-1,2.9-2.9l0.1-0.8h-1.7L93.5,81c-0.1,0.9-0.3,1.3-0.9,1.3
			c-0.6,0-0.6-0.4-0.5-1.3l0.7-4.2c0.1-0.7,0.4-1.1,0.9-1.1c0.5,0,0.7,0.4,0.5,1.1l-0.1,0.8h1.7l0.1-0.7c0.3-1.8-0.5-2.8-1.9-2.8
			c-1.4,0-2.6,1-2.9,2.8L90.4,81z"/>
		<path class="st20" d="M82.5,83.7h1.7l1-6.2c0.1-0.9,0.7-1.5,1.6-1.5c0.2,0,0.4,0,0.5,0.1l0.3-2h-0.2c-0.7,0-1.4,0.5-2,1.4l0.2-1.3
			h-1.7L82.5,83.7z"/>
		<polygon class="st21" points="78.1,74.2 78.5,83.7 80,83.7 83.1,74.2 81.5,74.2 79.8,80.1 79.7,80.1 79.6,74.2 		"/>
		<path class="st22" d="M74.4,82.6c0,0.4-0.1,0.8,0,1.1h1.6c0-0.4,0.1-1.3,0.3-2.7l0.6-4c0.3-2-0.2-3-1.7-3c-1.4,0-2.6,1.1-2.9,2.7
			c0,0.1,0,0.2,0,0.3H74l0.1-0.5c0.1-0.5,0.4-0.8,0.9-0.8c0.4,0,0.5,0.3,0.4,0.9l-0.2,1c-2.4,1.3-3.6,2.3-3.9,4.2
			c-0.2,1.4,0.2,2.1,1.1,2.1C73,83.8,73.8,83.4,74.4,82.6 M74.6,81.3c-0.3,0.6-0.8,0.9-1.2,0.9c-0.3,0-0.5-0.3-0.4-0.9
			c0.2-1,0.7-1.6,1.9-2.4L74.6,81.3z"/>
		<path class="st12" d="M62.2,83.7h1.7l1.1-7.2c0.5-0.5,0.9-0.7,1.1-0.7c0.4,0,0.4,0.2,0.4,0.7l-1.1,7.1h1.5l1.1-7.2
			c0.4-0.5,0.9-0.7,1.1-0.7c0.4,0,0.4,0.2,0.3,0.7l-1.1,7.1h1.7l1.2-7.9c0.2-1.1-0.2-1.6-1-1.6c-0.6,0-1.3,0.4-2,1.1
			c0-0.7-0.4-1.1-1-1.1c-0.7,0-1.3,0.4-2,1.1l0.2-1h-1.7L62.2,83.7z"/>
		<path class="st16" d="M105.2,83.7h4.4l0.3-1.7h-2.6l3.5-6.2l0.2-1.6h-4.2l-0.3,1.6h2.5l-3.6,6.2L105.2,83.7z M110.8,83.7h1.7
			l1.1-7.2c0.4-0.5,0.9-0.7,1.1-0.7c0.4,0,0.4,0.2,0.3,0.7l-1.1,7.1h1.6l1.2-7.9c0.2-1.1-0.1-1.7-0.9-1.7c-0.6,0-1.3,0.4-2.1,1.2
			l0.2-1h-1.7L110.8,83.7z M120.1,82.6c0,0.4-0.1,0.8,0,1.1h1.6c0-0.4,0.1-1.3,0.3-2.7l0.6-4c0.3-2-0.2-3-1.7-3
			c-1.4,0-2.6,1.1-2.9,2.7c0,0.1,0,0.2,0,0.3h1.7l0.1-0.5c0.1-0.5,0.4-0.8,0.9-0.8c0.4,0,0.5,0.3,0.4,0.9l-0.2,1
			c-2.4,1.3-3.6,2.3-3.9,4.2c-0.2,1.4,0.2,2.1,1.1,2.1C118.7,83.8,119.4,83.4,120.1,82.6z M120.2,81.3c-0.3,0.6-0.8,0.9-1.2,0.9
			c-0.3,0-0.5-0.3-0.4-0.9c0.2-1,0.7-1.6,1.9-2.4L120.2,81.3z M123.1,83.7h1.7l1.1-7.2c0.4-0.5,0.9-0.7,1.1-0.7
			c0.4,0,0.4,0.2,0.3,0.7l-1.1,7.1h1.6l1.2-7.9c0.2-1.1-0.1-1.7-0.9-1.7c-0.6,0-1.3,0.4-2.1,1.2l0.2-1h-1.7L123.1,83.7z M132,77.1
			h-1.6l-1.1,7.2c0,0.3-0.4,0.7-0.8,0.7c-0.1,0-0.3,0-0.5-0.1l-0.2,1.5c0.3,0.1,0.6,0.1,0.9,0.1c1.3,0,2-0.7,2.3-2.2L132,77.1z
			 M130.5,76h1.6l0.3-1.8h-1.6L130.5,76z M135.6,82.6c0,0.4-0.1,0.8,0,1.1h1.6c0-0.4,0.1-1.3,0.3-2.7l0.6-4c0.3-2-0.2-3-1.7-3
			c-1.4,0-2.6,1.1-2.9,2.7c0,0.1,0,0.2,0,0.3h1.7l0.1-0.5c0.1-0.5,0.4-0.8,0.9-0.8c0.4,0,0.5,0.3,0.4,0.9l-0.2,1
			c-2.4,1.3-3.6,2.3-3.9,4.2c-0.2,1.4,0.2,2.1,1.1,2.1C134.2,83.8,135,83.4,135.6,82.6z M135.8,81.3c-0.3,0.6-0.8,0.9-1.2,0.9
			c-0.3,0-0.5-0.3-0.4-0.9c0.2-1,0.7-1.6,1.9-2.4L135.8,81.3z"/>
	</g>
</g>
</svg>
